<?xml version="1.0" standalone="no"?>
<!DOCTYPE svg PUBLIC "-//W3C//DTD SVG 20010904//EN"
 "http://www.w3.org/TR/2001/REC-SVG-20010904/DTD/svg10.dtd">
<svg version="1.0" xmlns="http://www.w3.org/2000/svg"
 width="16.000000pt" height="16.000000pt" viewBox="0 0 16.000000 16.000000"
 preserveAspectRatio="xMidYMid meet">
<metadata>
Created by potrace 1.16, written by Peter Selinger 2001-2019
</metadata>
<g transform="translate(0.000000,16.000000) scale(0.011268,-0.011429)"
fill="#000000" stroke="none">
<path d="M40 1096 c0 -2 52 -142 115 -310 63 -168 115 -315 115 -325 0 -53
-95 -110 -162 -97 l-28 5 0 -64 0 -65 71 0 c38 0 90 5 114 11 49 12 118 66
141 111 8 16 69 181 134 366 65 185 121 345 125 355 7 16 1 18 -81 15 l-87 -3
-66 -207 c-36 -114 -69 -208 -73 -208 -4 0 -16 28 -27 63 -10 34 -40 128 -66
210 l-47 147 -89 0 c-49 0 -89 -2 -89 -4z"/>
<path d="M690 1098 c0 -2 56 -138 124 -303 l123 -300 74 -3 74 -2 105 262 c58
144 113 281 122 305 l18 43 -83 0 -83 0 -74 -200 c-40 -110 -76 -200 -79 -200
-3 0 -26 55 -50 123 -24 67 -57 157 -73 200 l-30 77 -84 0 c-46 0 -84 -1 -84
-2z"/>
<path d="M1303 640 c-42 -17 -58 -84 -25 -112 42 -37 95 -28 122 22 14 26 -12
77 -46 90 -14 6 -26 10 -27 9 -1 0 -12 -4 -24 -9z"/>
</g>
</svg>
